{"title":"Kick Ass 2 2013 READNFO WEBRiP-UNiQUE","uid":8864347,"size":1221416960,"categoryP":"video","categoryS":"movies","magnet":"?xt=urn:btih:3f1098d279a51db594dced33052cb4c27a73c8db&amp;dn=Kick+Ass+2+2013+READNFO+WEBRiP-UNiQUE&amp;tr=udp%3A%2F%2Ftracker.openbittorrent.com%3A80&amp;tr=udp%3A%2F%2Fopen.demonii.com%3A1337&amp;tr=udp%3A%2F%2Ftracker.coppersurfer.tk%3A6969&amp;tr=udp%3A%2F%2Fexodus.desync.com%3A6969","seeders":3,"leechers":0,"uploader":"HeroMaster","files":-1,"time":1377821108,"description":"Kick Ass 2 2013 READNFO WEBRiP-UNiQUE\n\nFormat                                   : AVI\nFormat/Info                              : Audio Video Interleave\nFile size                                : 1.12 GiB\nDuration                                 : 1h 38mn\nOverall bit rate                         : 1 630 Kbps)\nWriting library                          : VirtualDubMod build 2540/release\n\nVideo\nID                                       : 0\nFormat                                   : MPEG-4 Visual\nFormat profile                           : Advanced Simple@L5\nFormat settings, BVOP                    : 2\nFormat settings, QPel                    : No\nFormat settings, GMC                     : No warppoints\nFormat settings, Matrix                  : Default (H.263)\nMuxing mode                              : Packed bitstream\nCodec ID                                 : XVID\nCodec ID/Hint                            : XviD\nDuration                                 : 1h 38mn\nBit rate                                 : 1 492 Kbps\nWidth                                    : 720 pixels\nHeight                                   : 292 pixels\nDisplay aspect ratio                     : 16:9\nOriginal display aspect ratio            : 2.466\nFrame rate                               : 25.000 fps\nColor space                              : YUV\nChroma subsampling                       : 4:2:0\nBit depth                                : 8 bits\nScan type                                : Progressive\nCompression mode                         : Lossy\nBits/(Pixel*Frame)                       : 0.284\nStream size                              : 1.03 GiB (92%)\nWriting library                          : XviD 64\n\nAudio\nID                                       : 1\nFormat                                   : AC-3\nFormat/Info                              : Audio Coding 3\nMode extension                           : CM (complete main)\nFormat settings, Endianness              : Big\nCodec ID                                 : 2000\nDuration                                 : 1h 38mn\nBit rate mode                            : Constant\nBit rate                                 : 128 Kbps\nChannel(s)                               : 2 channels\nChannel positions                        : Front: L R\nSampling rate                            : 44.1 KHz\nBit depth                                : 16 bits\nCompression mode                         : Lossy\nStream size                              : 90.4 MiB (8%)\nAlignment                                : Split accross interleaves\nInterleave, duration                     : 40 ms (1.00 video frame)\nInterleave, preload duration             : 500 ms\n\n &lt;a href=&quot;\nhttp://www.imdb.com/title/tt1650554/&quot; rel=&quot;nofollow&quot; target=&quot;_NEW&quot;&gt;\nhttp://www.imdb.com/title/tt1650554/&lt;/a&gt;\n\n\nStoryline\nAfter Kick-Ass' insane bravery inspires a new wave of self-made masked crusaders, led by the badass Colonel Stars and Stripes, our hero joins them on patrol. When these amateur superheroes are hunted down by Red Mist -- reborn as The Mother F%&amp;*^r -- only the blade-wielding Hit Girl can prevent their annihilation. When we last saw junior assassin Hit Girl and young vigilante Kick-Ass, they were trying to live as normal teenagers Mindy and Dave. With graduation looming and uncertain what to do, Dave decides to start the world's first superhero team with Mindy. Unfortunately, when Mindy is busted for sneaking out as Hit Girl, she's forced to retire-leaving her to navigate the terrifying world of high-school mean girls on her own. With no one left to turn to, Dave joins forces with Justice Forever, run by a born-again ex-mobster named Colonel Stars and Stripes. Just as they start to make a real difference on the streets, the world's first super villain, The Mother F%&amp;*^r, assembles his\n\nSource Used      SmY- Thanks\nGreets now going out to !\nJUSTiCE,KiSSMYACE and the rest can just KMA      \n\n\nREAD THE DAMN DESCRIPTION :lol:\n\nNo no no no no no no no you cant turn them off lmao\nDid our usual chose not to crop subs again but im sure we gonna get &quot;Can the subs be removed or turned off&quot; Sure crop them out or blur them but good luck on that turning them off question\nFigure out what embedded / hardcoded is before you ask dumb ?s\nEMBEDDED SUBS THROUGHOUT \n\n\nPoster:\n\n &lt;a href=&quot;\nhttp://i.imgur.com/fXNJsvm.jpg&quot; rel=&quot;nofollow&quot; target=&quot;_NEW&quot;&gt;\nhttp://i.imgur.com/fXNJsvm.jpg&lt;/a&gt;\n\n\nScreenshots:\n\n &lt;a href=&quot;\nhttp://i.imgur.com/FJqGLEO.jpg&quot; rel=&quot;nofollow&quot; target=&quot;_NEW&quot;&gt;\nhttp://i.imgur.com/FJqGLEO.jpg&lt;/a&gt;\n\n\nSEED AND ENJOY!","torrent":{"xt":"urn:btih:3f1098d279a51db594dced33052cb4c27a73c8db","amp;dn":"Kick+Ass+2+2013+READNFO+WEBRiP-UNiQUE","amp;tr":["udp%3A%2F%2Ftracker.openbittorrent.com%3A80","udp%3A%2F%2Fopen.demonii.com%3A1337","udp%3A%2F%2Ftracker.coppersurfer.tk%3A6969","udp%3A%2F%2Fexodus.desync.com%3A6969"],"infoHash":"3f1098d279a51db594dced33052cb4c27a73c8db","infoHashBuffer":{"type":"Buffer","data":[63,16,152,210,121,165,29,181,148,220,237,51,5,44,180,194,122,115,200,219]},"announce":[],"urlList":[]}}